<?xml version="1.0" encoding="iso-8859-1"?>
<!-- Generator: Adobe Illustrator 19.0.0, SVG Export Plug-In . SVG Version: 6.00 Build 0)  -->
<svg version="1.1" id="Capa_1" xmlns="http://www.w3.org/2000/svg" xmlns:xlink="http://www.w3.org/1999/xlink" x="0px" y="0px"
	 viewBox="0 0 512 512" style="enable-background:new 0 0 512 512;" xml:space="preserve">
<path style="fill:#7BE68D;" d="M338.977,347.991l3.044,5.272h6.789c18.06,0,34.41-7.32,46.24-19.15
	c11.84-11.84,19.16-28.19,19.16-46.25c0-35.53-28.33-64.42-63.63-65.36c3.76-10.74,5.81-22.27,5.81-34.29
	c0-41.51-24.42-77.31-59.68-93.83c-17.621,8.258-32.536,21.335-43.047,37.534l3.075,5.325h-6.307"/>
<polyline style="fill:#F47C5D;" points="342.021,353.263 363.781,390.952 335.083,390.952 335.083,495.737 392.479,495.737 
	392.479,353.263 "/>
<path style="fill:#7BE68D;" d="M444.18,188.213c0,12.02-2.05,23.55-5.81,34.29c19.506,0.519,36.884,9.573,48.529,23.566
	C496.294,235.49,502,221.562,502,206.3c0-33.09-26.825-59.915-59.915-59.915c-2.211,0-4.394,0.12-6.543,0.353
	C441.098,159.437,444.18,173.465,444.18,188.213z"/>
<path style="fill:#20CF7A;" d="M438.37,222.503c3.76-10.74,5.81-22.27,5.81-34.29c0-57.2-46.37-103.57-103.57-103.57
	c-15.69,0-30.57,3.49-43.9,9.74c35.26,16.52,59.68,52.32,59.68,93.83c0,12.02-2.05,23.55-5.81,34.29
	c35.3,0.94,63.63,29.83,63.63,65.36c0,18.06-7.32,34.41-19.16,46.25c-11.83,11.83-28.18,19.15-46.24,19.15h87.79
	c18.06,0,34.41-7.32,46.25-19.15c11.83-11.84,19.15-28.19,19.15-46.25C502,252.333,473.67,223.443,438.37,222.503z"/>
<rect x="154.07" y="390.95" style="fill:#DE614E;" width="65.63" height="104.78"/>
<polyline style="fill:#7BE68D;" points="85.514,260.158 34.804,347.991 338.977,347.991 288.267,260.158 "/>
<g>
	<polygon style="fill:#20CF7A;" points="34.804,347.991 10,390.952 363.781,390.952 338.977,347.991 	"/>
	<polyline style="fill:#20CF7A;" points="259.999,260.158 308.358,260.158 237.393,137.242 136.388,137.242 65.423,260.158 
		178.89,260.158 	"/>
</g>
<path d="M219.71,270.16c-0.66,0-1.31-0.07-1.96-0.2c-0.64-0.13-1.26-0.32-1.87-0.57c-0.6-0.25-1.18-0.56-1.72-0.92
	c-0.55-0.36-1.06-0.78-1.52-1.24s-0.88-0.97-1.25-1.52c-0.36-0.54-0.67-1.12-0.92-1.73c-0.25-0.6-0.44-1.23-0.57-1.87
	c-0.13-0.64-0.19-1.3-0.19-1.95c0-0.65,0.06-1.31,0.19-1.96c0.13-0.63,0.32-1.26,0.57-1.87c0.25-0.6,0.56-1.18,0.92-1.72
	c0.37-0.55,0.79-1.06,1.25-1.52s0.97-0.88,1.52-1.25c0.54-0.36,1.12-0.67,1.72-0.92c0.61-0.25,1.24-0.44,1.87-0.57
	c1.29-0.26,2.62-0.26,3.91,0c0.64,0.13,1.27,0.32,1.87,0.57c0.61,0.25,1.19,0.56,1.73,0.92c0.55,0.37,1.06,0.79,1.52,1.25
	s0.88,0.97,1.24,1.52c0.36,0.54,0.67,1.12,0.92,1.72c0.25,0.61,0.44,1.24,0.57,1.87c0.13,0.65,0.2,1.31,0.2,1.96
	s-0.07,1.31-0.2,1.95c-0.13,0.64-0.32,1.27-0.57,1.87c-0.25,0.61-0.56,1.19-0.92,1.73c-0.36,0.55-0.78,1.06-1.24,1.52
	s-0.97,0.88-1.52,1.24c-0.54,0.36-1.12,0.67-1.73,0.92c-0.6,0.25-1.23,0.44-1.87,0.57S220.36,270.16,219.71,270.16z"/>
<polygon style="fill:#7BE68D;" points="186.891,16.263 117.044,137.242 256.738,137.242 "/>
<path d="M512,206.3c0-38.551-31.363-69.915-69.915-69.915c-0.145,0-0.29,0.005-0.434,0.006
	c-18.865-36.635-57.075-61.749-101.04-61.749c-16.823,0-33.021,3.595-48.143,10.685l-0.001,0.001
	c-14.479,6.786-27.292,16.507-37.693,28.512L195.55,11.263c-1.786-3.094-5.087-5-8.66-5s-6.874,1.906-8.66,5l-69.847,120.979
	c-1.787,3.094-1.787,6.906,0,10c1.786,3.094,5.087,5,8.66,5h2.024L56.763,255.158c-1.787,3.094-1.787,6.906,0,10
	c1.786,3.094,5.087,5,8.66,5h2.771L1.34,385.952c-1.787,3.094-1.787,6.906,0,10c1.786,3.094,5.087,5,8.66,5h134.074v84.785H69.259
	c-5.523,0-10,4.477-10,10s4.477,10,10,10H442.74c5.523,0,10-4.477,10-10s-4.477-10-10-10h-40.262V363.263H436.6
	c20.134,0,39.069-7.84,53.324-22.082C504.16,326.932,512,307.997,512,287.863c0-15.008-4.381-29.384-12.523-41.632
	C507.598,234.569,512,220.663,512,206.3z M492,206.3c0,8.588-2.206,16.946-6.326,24.325c-9.899-8.507-21.708-14.232-34.414-16.726
	c1.94-8.389,2.92-16.988,2.92-25.687c0-10.826-1.525-21.303-4.367-31.229C473.68,160.709,492,181.405,492,206.3z M296.709,105.56
	c30.332,16.149,49.681,48.086,49.681,82.653c0,10.613-1.766,21.039-5.248,30.986c-1.056,3.015-0.607,6.352,1.206,8.981
	s4.773,4.234,7.966,4.319c30.223,0.805,53.897,25.123,53.897,55.363c0,14.798-5.765,28.712-16.232,39.179
	c-10.46,10.46-24.37,16.221-39.168,16.221h-1.016l-0.156-0.271c-0.004-0.007-0.008-0.013-0.012-0.02l-42.039-72.814h2.771
	c3.572,0,6.874-1.906,8.66-5s1.786-6.906,0-10l-62.306-107.916h2.024c3.572,0,6.874-1.906,8.66-5
	c1.753-3.038,1.781-6.765,0.092-9.827C273.791,121.249,284.441,112.085,296.709,105.56z M186.89,36.263l52.527,90.979H134.364
	L186.89,36.263z M91.288,270.158h87.602c5.523,0,10-4.477,10-10c0-5.523-4.477-10-10-10H82.743l59.418-102.916h89.458
	l59.419,102.916h-31.039c-5.523,0-10,4.477-10,10c0,5.523,4.477,10,10,10h22.494l39.164,67.833H52.124L91.288,270.158z
	 M40.577,357.991h292.626l0.156,0.271c0.003,0.005,0.006,0.01,0.01,0.015l13.092,22.674H27.321L40.577,357.991z M325.083,400.952
	v84.785h-95.376v-84.785H325.083z M164.074,485.737v-84.785h45.633v84.785H164.074z M382.479,485.737h-37.396v-84.785h18.698
	c0.67,0,1.33-0.067,1.973-0.196c2.784-0.56,5.236-2.29,6.688-4.804c1.786-3.094,1.786-6.906,0-10l-13.1-22.689h23.137
	L382.479,485.737L382.479,485.737z M475.782,327.039c-10.472,10.462-24.387,16.224-39.182,16.224h-36.649
	c0.733-0.678,1.459-1.368,2.169-2.079c14.244-14.245,22.089-33.181,22.089-53.321c0-19.785-7.608-38.478-21.42-52.635
	c-10.793-11.061-24.441-18.408-39.32-21.329c1.94-8.389,2.92-16.988,2.92-25.687c0-36.287-17.57-70.186-46.135-91.362
	c6.623-1.468,13.424-2.208,20.355-2.208c51.595,0,93.569,41.976,93.569,93.57c0,10.613-1.766,21.039-5.248,30.986
	c-1.056,3.015-0.607,6.352,1.206,8.981s4.773,4.234,7.966,4.319c16.182,0.431,30.483,7.604,40.282,18.816
	c0.477,0.773,1.069,1.493,1.772,2.136c7.437,9.43,11.844,21.369,11.844,34.413C492,302.658,486.238,316.573,475.782,327.039z"/>
<g>
</g>
<g>
</g>
<g>
</g>
<g>
</g>
<g>
</g>
<g>
</g>
<g>
</g>
<g>
</g>
<g>
</g>
<g>
</g>
<g>
</g>
<g>
</g>
<g>
</g>
<g>
</g>
<g>
</g>
</svg>
