<svg id="Capa_1" enable-background="new 0 0 512 512" height="512" viewBox="0 0 512 512" width="512" xmlns="http://www.w3.org/2000/svg"><g><g><g><path d="m485 286c-18.02 0-36-8.11-47-20.69-11 12.58-28.98 20.69-47 20.69s-36-8.11-47-20.69c-11 12.58-28.98 20.69-47 20.69s-36-8.11-47-20.69c-34.45 39.41-120 24.48-120-39.31 0-20.088 9.88-37.859 25.036-48.749l-145.036 48.749v240h492c0-17.387 0-161.845 0-182.12-4.82 1.25-11.79 2.12-17 2.12z" fill="#b3f1ff"/></g><path d="m359.92 141.78c14.77 7.51 20.65 25.57 13.14 40.34s-25.57 20.65-40.34 13.14-39.88-53.93-39.88-53.93 52.31-7.06 67.08.45z" fill="#b3f1ff"/><path d="m190 406c-99.46 0-180-80.64-180-180 0-99.41 80.59-180 180-180 36.14 0 69.79 10.65 97.98 28.98-14 16.12-33.63 27.21-55.84 30.21 1.85 4.92 2.86 10.25 2.86 15.81 0 24.85-20.15 45-45 45-.52 0-1.03.01-1.55.02-65.56.82-118.45 54.23-118.45 119.98 0 66.155 53.617 120 120 120z" fill="#fff5f5"/></g><g><circle cx="250" cy="196" r="10"/><path d="m364.452 132.866c-16.703-8.493-63.698-2.694-72.95-1.446-3.255.439-6.088 2.45-7.577 5.378s-1.444 6.401.119 9.29c4.441 8.209 27.44 49.593 44.143 58.086 19.659 9.995 43.789 2.141 53.787-17.521 9.997-19.663 2.137-43.791-17.522-53.787zm-.306 44.721c-4.998 9.83-17.062 13.757-26.894 8.758-5.9-3-17.823-19.53-28.178-36.761 20.029-1.786 40.414-1.891 46.313 1.109 9.829 4.998 13.758 17.063 8.759 26.894z"/><circle cx="250" cy="466" r="10"/><path d="m10 476h195c5.523 0 10-4.477 10-10s-4.477-10-10-10h-185v-145.218c30.762 61.431 93.846 103.971 166.814 105.178 1.061.025 18.186.04 18.186.04 16.528 0 32.48-6.009 45.083-16.753 12.789 10.5 29.941 16.753 46.917 16.753 17.013 0 34.203-6.28 47-16.821 12.797 10.541 29.987 16.821 47 16.821s34.203-6.28 47-16.821c12.797 10.541 29.987 16.821 47 16.821 2.163 0 4.56-.13 7-.359v40.359h-197c-5.523 0-10 4.477-10 10s4.477 10 10 10h207c5.523 0 10-4.477 10-10 0-10.454 0-171.667 0-182.12 0-3.095-1.433-6.015-3.88-7.909-2.448-1.894-5.635-2.548-8.63-1.771-4.021 1.043-10.115 1.8-14.49 1.8-14.804 0-30.297-6.78-39.472-17.272-1.899-2.172-4.643-3.417-7.528-3.417s-5.629 1.246-7.528 3.417c-9.175 10.492-24.668 17.272-39.472 17.272s-30.297-6.78-39.472-17.272c-1.899-2.172-4.643-3.417-7.528-3.417s-5.629 1.246-7.528 3.417c-9.175 10.492-24.668 17.272-39.472 17.272s-30.297-6.78-39.472-17.272c-1.899-2.172-4.644-3.417-7.528-3.417-2.885 0-5.63 1.247-7.528 3.418-15.222 17.413-44.327 23.274-69.207 13.931-21.14-7.937-33.265-24.944-33.265-46.66 0-27.337 21.393-49.292 48.647-49.982 34.808-.674 56.353-26.786 56.353-55.018 0-2.697-.194-5.371-.579-8.008 19.735-4.962 37.591-15.891 51.109-31.455 3.983-4.586 2.985-11.635-2.099-14.941-30.783-20.016-66.549-30.596-103.431-30.596-104.766 0-190 85.234-190 190v240c0 5.523 4.477 10 10 10zm482-80.467c-2.45.292-4.92.467-7 .467-14.804 0-30.297-6.78-39.472-17.272-1.899-2.172-4.643-3.417-7.528-3.417s-5.629 1.246-7.528 3.417c-9.175 10.492-24.668 17.272-39.472 17.272s-30.297-6.78-39.472-17.272c-1.899-2.172-4.643-3.417-7.528-3.417s-5.629 1.246-7.528 3.417c-9.175 10.492-24.668 17.272-39.472 17.272s-30.297-6.78-39.472-17.272c-1.899-2.172-4.643-3.417-7.528-3.417s-5.629 1.246-7.528 3.417c-9.598 10.977-23.256 17.307-37.472 17.307 0 0-16.837-.02-17.755-.035-37.06-.906-69.793-20.081-89.066-49.25 3.003 1.342 6.121 2.471 9.34 3.347 18.883 5.143 37.907 1.088 52.438-10.817 12.595 10.723 28.532 16.72 45.043 16.72 16.528 0 32.48-6.009 45.083-16.753 12.789 10.5 29.941 16.753 46.917 16.753 17.013 0 34.202-6.28 47-16.821 12.797 10.541 29.987 16.821 47 16.821s34.202-6.28 47-16.821c12.797 10.541 29.987 16.821 47 16.821 2.163 0 4.56-.13 7-.359zm-325.766-104.15c15.174 5.697 32.434 7.126 48.6 4.023 13.603-2.611 25.592-8.148 35.208-16.193 12.792 10.52 29.964 16.787 46.958 16.787 17.013 0 34.203-6.28 47-16.821 12.797 10.541 29.987 16.821 47 16.821s34.203-6.28 47-16.821c12.797 10.541 29.987 16.821 47 16.821 2.164 0 4.559-.126 7-.354v39.888c-2.45.292-4.92.467-7 .467-14.804 0-30.297-6.78-39.472-17.272-1.899-2.171-4.643-3.417-7.528-3.417s-5.629 1.246-7.528 3.417c-9.175 10.491-24.668 17.271-39.472 17.271s-30.297-6.78-39.472-17.272c-1.899-2.171-4.643-3.417-7.528-3.417s-5.629 1.246-7.528 3.417c-9.175 10.492-24.668 17.272-39.472 17.272s-30.297-6.78-39.472-17.272c-1.899-2.171-4.643-3.417-7.528-3.417s-5.629 1.246-7.528 3.417c-9.598 10.977-23.256 17.272-37.472 17.272s-27.874-6.295-37.472-17.272c-1.892-2.163-4.623-3.408-7.496-3.417-3.997-.047-6.244 1.989-8.37 4.323-10.054 11.089-24.226 15.159-38.887 11.167-18.127-4.938-32.775-20.167-32.775-44.801 0-36.859 18.451-69.714 46.592-89.713-4.312 9.189-6.592 19.286-6.592 29.713 0 30.071 17.284 54.514 46.234 65.383zm23.766-235.383c28.806 0 56.848 7.21 81.821 20.948-11.604 9.876-25.814 16.278-41.019 18.332-3.018.408-5.686 2.168-7.247 4.782-1.562 2.614-1.847 5.797-.775 8.647 1.473 3.917 2.22 8.053 2.22 12.291 0 19.299-15.701 35-35 35-.555 0-1.201.011-1.803.023-88.736 18.91-128.197 60.222-128.197 129.977 0 23.986 6.598 48.248 20.272 69.732-36.84-31.208-60.272-77.781-60.272-129.732 0-93.738 76.262-170 170-170z"/></g></g></svg>